<svg width="30" height="30" viewBox="0 0 30 30" fill="none" xmlns="http://www.w3.org/2000/svg">
<circle cx="15" cy="15" r="15" fill="url(#paint0_linear_529_36)"/>
<path d="M21.3364 14.2728V14.2727C21.3364 14.0268 21.2387 13.7909 21.0648 13.617C20.8909 13.4431 20.655 13.3455 20.4091 13.3455C20.1632 13.3455 19.9273 13.4431 19.7534 13.617C19.5795 13.7909 19.4818 14.0268 19.4818 14.2727C19.4818 15.5626 18.9694 16.7997 18.0573 17.7118C17.1452 18.6239 15.9081 19.1364 14.6182 19.1364C13.3283 19.1364 12.0912 18.6239 11.1791 17.7118C10.267 16.7997 9.75455 15.5626 9.75455 14.2727C9.75455 14.0268 9.65685 13.7909 9.48295 13.617C9.30906 13.4431 9.0732 13.3455 8.82727 13.3455C8.58134 13.3455 8.34549 13.4431 8.17159 13.617C7.99769 13.7909 7.9 14.0268 7.9 14.2727L7.9 14.2728C7.90148 15.9081 8.49936 17.4867 9.58156 18.7127C10.6443 19.9166 12.1024 20.6993 13.6909 20.9206V22.4455H12.1364C11.8904 22.4455 11.6546 22.5431 11.4807 22.717C11.3068 22.8909 11.2091 23.1268 11.2091 23.3727C11.2091 23.6187 11.3068 23.8545 11.4807 24.0284C11.6546 24.2023 11.8904 24.3 12.1364 24.3H17.1C17.3459 24.3 17.5818 24.2023 17.7557 24.0284C17.9296 23.8545 18.0273 23.6187 18.0273 23.3727C18.0273 23.1268 17.9296 22.8909 17.7557 22.717C17.5818 22.5431 17.3459 22.4455 17.1 22.4455H15.5455V20.9206C17.134 20.6993 18.5921 19.9166 19.6548 18.7127C20.737 17.4867 21.3349 15.9081 21.3364 14.2728ZM14.6182 17.6818C15.5223 17.6818 16.3894 17.3226 17.0288 16.6833C17.6681 16.044 18.0273 15.1769 18.0273 14.2727V9.30909C18.0273 8.40494 17.6681 7.53783 17.0288 6.8985C16.3894 6.25917 15.5223 5.9 14.6182 5.9C13.714 5.9 12.8469 6.25917 12.2076 6.8985C11.5683 7.53783 11.2091 8.40494 11.2091 9.30909V14.2727C11.2091 15.1769 11.5683 16.044 12.2076 16.6833C12.8469 17.3226 13.714 17.6818 14.6182 17.6818ZM13.0636 9.30909C13.0636 8.8968 13.2274 8.50139 13.519 8.20986C13.8105 7.91833 14.2059 7.75455 14.6182 7.75455C15.0305 7.75455 15.4259 7.91833 15.7174 8.20986C16.0089 8.50139 16.1727 8.8968 16.1727 9.30909V14.2727C16.1727 14.685 16.0089 15.0804 15.7174 15.372C15.4259 15.6635 15.0305 15.8273 14.6182 15.8273C14.2059 15.8273 13.8105 15.6635 13.519 15.372C13.2274 15.0804 13.0636 14.685 13.0636 14.2727V9.30909Z" fill="#45017F" stroke="#45017F" stroke-width="0.2"/>
<defs>
<linearGradient id="paint0_linear_529_36" x1="15" y1="0" x2="15" y2="30" gradientUnits="userSpaceOnUse">
<stop stop-color="#F9D2DE" stop-opacity="0.996078"/>
<stop offset="0.5" stop-color="#F4B3D7" stop-opacity="0.996078"/>
<stop offset="1" stop-color="#DE91D6" stop-opacity="0.996078"/>
</linearGradient>
</defs>
</svg>
