<svg width="36" height="36" viewBox="0 0 36 36" fill="none" xmlns="http://www.w3.org/2000/svg">
<circle cx="18" cy="18" r="17.5" fill="url(#paint0_linear_535_118)" stroke="url(#paint1_linear_535_118)"/>
<path d="M14.952 10.864H12.624L12.224 12H11.272L13.264 6.432H14.32L16.312 12H15.352L14.952 10.864ZM14.696 10.12L13.792 7.536L12.88 10.12H14.696ZM18.7781 12.072C18.4315 12.072 18.1195 12.0107 17.8421 11.888C17.5701 11.76 17.3541 11.5893 17.1941 11.376C17.0341 11.1573 16.9488 10.9147 16.9381 10.648H17.8821C17.8981 10.8347 17.9861 10.992 18.1461 11.12C18.3115 11.2427 18.5168 11.304 18.7621 11.304C19.0181 11.304 19.2155 11.256 19.3541 11.16C19.4981 11.0587 19.5701 10.9307 19.5701 10.776C19.5701 10.6107 19.4901 10.488 19.3301 10.408C19.1755 10.328 18.9275 10.24 18.5861 10.144C18.2555 10.0533 17.9861 9.96533 17.7781 9.88C17.5701 9.79467 17.3888 9.664 17.2341 9.488C17.0848 9.312 17.0101 9.08 17.0101 8.792C17.0101 8.55733 17.0795 8.344 17.2181 8.152C17.3568 7.95467 17.5541 7.8 17.8101 7.688C18.0715 7.576 18.3701 7.52 18.7061 7.52C19.2075 7.52 19.6101 7.648 19.9141 7.904C20.2235 8.15467 20.3888 8.49867 20.4101 8.936H19.4981C19.4821 8.73867 19.4021 8.58133 19.2581 8.464C19.1141 8.34667 18.9195 8.288 18.6741 8.288C18.4341 8.288 18.2501 8.33333 18.1221 8.424C17.9941 8.51467 17.9301 8.63467 17.9301 8.784C17.9301 8.90133 17.9728 9 18.0581 9.08C18.1435 9.16 18.2475 9.224 18.3701 9.272C18.4928 9.31467 18.6741 9.37067 18.9141 9.44C19.2341 9.52533 19.4955 9.61333 19.6981 9.704C19.9061 9.78933 20.0848 9.91733 20.2341 10.088C20.3835 10.2587 20.4608 10.4853 20.4661 10.768C20.4661 11.0187 20.3968 11.2427 20.2581 11.44C20.1195 11.6373 19.9221 11.792 19.6661 11.904C19.4155 12.016 19.1195 12.072 18.7781 12.072ZM23.1956 9.8L25.2276 12H23.9956L22.3636 10.104V12H21.4516V6.08H22.3636V9.52L23.9636 7.592H25.2276L23.1956 9.8Z" fill="url(#paint2_linear_535_118)"/>
<mask id="mask0_535_118" style="mask-type:alpha" maskUnits="userSpaceOnUse" x="4" y="14" width="29" height="11">
<path d="M4 14L9.5 18.895L15 14V25H4V14Z" fill="#D9D9D9"/>
<rect x="16.3203" y="14" width="4.29001" height="11" fill="#D9D9D9"/>
<path d="M27.4297 14L32.9297 25H21.9297L27.4297 14Z" fill="#D9D9D9"/>
</mask>
<g mask="url(#mask0_535_118)">
<rect x="3.01074" y="12.7905" width="31.02" height="13.31" fill="url(#paint3_linear_535_118)"/>
</g>
<defs>
<linearGradient id="paint0_linear_535_118" x1="31.75" y1="29.75" x2="3.75" y2="7.25" gradientUnits="userSpaceOnUse">
<stop stop-color="#FCE5F0"/>
<stop offset="1" stop-color="white"/>
</linearGradient>
<linearGradient id="paint1_linear_535_118" x1="18" y1="0" x2="18" y2="36" gradientUnits="userSpaceOnUse">
<stop stop-color="#C56DBC"/>
<stop offset="1" stop-color="#EDB7C7"/>
</linearGradient>
<linearGradient id="paint2_linear_535_118" x1="11" y1="9" x2="26" y2="9" gradientUnits="userSpaceOnUse">
<stop stop-color="#F434A0"/>
<stop offset="0.5" stop-color="#B33BB7"/>
<stop offset="1" stop-color="#7B53D3"/>
</linearGradient>
<linearGradient id="paint3_linear_535_118" x1="3.01074" y1="19.4455" x2="34.0308" y2="19.4455" gradientUnits="userSpaceOnUse">
<stop stop-color="#FA339E"/>
<stop offset="0.5" stop-color="#B33BB7"/>
<stop offset="0.75" stop-color="#843FC7"/>
<stop offset="1" stop-color="#706BE0"/>
</linearGradient>
</defs>
</svg>
