<svg width="30" height="30" viewBox="0 0 30 30" fill="none" xmlns="http://www.w3.org/2000/svg">
<circle cx="15" cy="15" r="15" fill="url(#paint0_linear_519_25)"/>
<path d="M21.8686 11.6189L21.7625 11.5129L21.6564 11.6189L17.9314 15.3439L17.6754 15.6H18.0375H20.6792C20.5998 18.5348 18.1978 20.8875 15.2437 20.8875C14.3241 20.8875 13.4632 20.6565 12.7012 20.2574L12.6035 20.2062L12.5255 20.2842L11.1659 21.6438L11.0326 21.7772L11.1925 21.8771C12.3695 22.6127 13.7518 23.05 15.2437 23.05C19.3926 23.05 22.7624 19.7297 22.8423 15.6H25.4875H25.8496L25.5936 15.3439L21.8686 11.6189ZM9.80827 15.3C9.88766 12.3652 12.2897 10.0125 15.2437 10.0125C16.1634 10.0125 17.0243 10.2435 17.7863 10.6426L17.884 10.6938L17.962 10.6158L19.3216 9.25616L19.4549 9.12283L19.295 9.02289C18.118 8.28726 16.7357 7.85 15.2437 7.85C11.0949 7.85 7.72505 11.1703 7.6452 15.3H5H4.63787L4.89393 15.5561L8.61893 19.2811L8.725 19.3871L8.83106 19.2811L12.5561 15.5561L12.8121 15.3H12.45H9.80827Z" fill="#45017F" stroke="#45017F" stroke-width="0.3"/>
<defs>
<linearGradient id="paint0_linear_519_25" x1="15" y1="0" x2="15" y2="30" gradientUnits="userSpaceOnUse">
<stop stop-color="#F9D2DE" stop-opacity="0.996078"/>
<stop offset="0.5" stop-color="#F4B3D7" stop-opacity="0.996078"/>
<stop offset="1" stop-color="#DE91D6" stop-opacity="0.996078"/>
</linearGradient>
</defs>
</svg>
